# xmcd CD database file
#
# Track frame offsets:
#	150
#	13427
#	26431
#	38754
#	49948
#	63667
#	75882
#	90124
#	102613
#	116725
#	129738
#	143275
#	156794
#	170404
#	185134
#	198694
#	213537
#	226889
#	241817
#	255524
#	270746
#
# Disc length: 3802 seconds
#
# Revision: 0
# Processed by: cddbd v1.5.2PL0 Copyright (c) Steve Scherf et al.
# Submitted via: CDex 1.85
#
DISCID=210ed815
DTITLE=Jimmy Rushing - Jimmy Rushing with Count Basie and Bennie Moten 1930-1938
DYEAR=1999
DGENRE=Jazz
TTITLE0=Sent For You Yesterday And Here You Come Today
TTITLE1=Boogie Woogie (I May Be Wrong)
TTITLE2=Exactly Like You
TTITLE3=Exactly Like You
TTITLE4=Pennies From Heaven
TTITLE5=Georgiana
TTITLE6=Don't You Miss Your Baby?
TTITLE7=I Keep Remembering
TTITLE8=Listen My Children (And You Shall Hear)
TTITLE9=Now Will You Be Good!
TTITLE10=Blues In The Dark
TTITLE11=Mama Don't Want No Peas An' Rice An' Coconut Oil
TTITLE12=London Bridge Is Fallin' Down
TTITLE13=Stop Beatin' Around The Mulberry Bush
TTITLE14=New Orleans
TTITLE15=Ya Got Love
TTITLE16=I Wanna Be Around My Baby All The Time
TTITLE17=When I'm Alone
TTITLE18=Get Goin' (Get Ready To Love)
TTITLE19=That Too, Do
TTITLE20=Won't You Be My Baby?
EXTD=YEAR: 1999
EXTT0=
EXTT1=
EXTT2=
EXTT3=
EXTT4=
EXTT5=
EXTT6=
EXTT7=
EXTT8=
EXTT9=
EXTT10=
EXTT11=
EXTT12=
EXTT13=
EXTT14=
EXTT15=
EXTT16=
EXTT17=
EXTT18=
EXTT19=
EXTT20=
PLAYORDER=
